<svg height="24" viewBox="0 0 149.629654 24" width="149.629654" xmlns="http://www.w3.org/2000/svg"><path d="m83.8125 7.5625-.578125 2.5-1.0625 4.601562-.886719 3.847657c-.050781.203125-.585937.433593-1.339844.433593h-3.625c-.738281-.003906-1.15625-.234374-1.113281-.433593l.886719-3.847657 1.0625-4.601562.164062-.710938c.085938-.355468-.558593-.566406-1.25-.566406h-8.324218c-.023438.097656-.039063.175782-.046875.210938l-2.148438 9.515625v.003906c-.03125.121094-.191406.210937-.402343.28125-.023438.007813-.039063.011719-.058594.019531-.089844.027344-.183594.046875-.28125.066406-.070313.011719-.144532.023438-.222656.03125-.144532.019532-.285157.027344-.40625.03125-.007813 0-.015626 0-.027344 0h-3.886719c-.742187-.003906-1.160156-.234374-1.113281-.433593l2.890625-12.816407c0-.003906.003906-.003906.003906-.003906l1.1875-5.273437c.042969-.1875.613281-.41406275 1.398437-.41406275h3.75c.828126 0 1.292969.23046875 1.25.41406275l-1.089843 4.84375s-.007813.015625-.007813.027343c3.199219.011719 10.949219.042969 10.949219.042969.578125 0 1.117187.046875 1.601563.132813 1.824218.3125 2.945312 1.152344 2.726562 2.097656m14.347656-1.890625-.523437 2.316406c-.042969.203125-.605469.4375-1.398438.4375h-1.546875c-.808594.003907-1.578125.210938-1.65625.570313l-2.152344 9.515625c-.042968.203125-.605468.4375-1.394531.4375h-3.824219c-.777343-.003907-1.226562-.234375-1.179687-.4375l4.082031-18.097657c.042969-.1875.613282-.414062 1.402344-.414062h3.746094c.828125 0 1.292968.234375 1.253906.414062l-1.089844 4.847657h3.027344c.832031 0 1.300781.222656 1.253906.410156m51.46875.03125-.523437 2.308594c-.046875.203125-.605469.4375-1.394531.4375h-1.542969c-.804688.003906-1.570313.207031-1.652344.566406l-2.140625 9.480469c-.046875.207031-.605469.4375-1.394531.4375h-3.808594c-.777344 0-1.222656-.230469-1.175781-.4375l4.070312-18.035156c.042969-.183594.609375-.4101568 1.394532-.4101568h3.734374c.824219 0 1.289063.2343748 1.25.4101568l-1.089843 4.832031h3.023437c.820313 0 1.289063.222656 1.25.410156m-42.515625-5.425781c.765625 0 1.226563.21875 1.183594.402344l-.503906 2.25c-.070313.304687-.941407.429687-1.417969.425781h-3.703125c-.765625-.003907-1.199219-.234375-1.15625-.425781l.507813-2.25c.050781-.183594.601562-.402344 1.371093-.402344zm-3.589843 21.554687c-.253907 1.136719-2.683594 2.167969-5.496094 2.167969-.757813 0-1.226563-.183594-1.179688-.398438l4.007813-17.75c.050781-.183593.601562-.402343 1.371093-.402343h3.675782c.808594 0 1.269531.222656 1.230468.402343zm25.117187-12.75c.097656-.429687-.5625-.628906-1.273437-.632812h-8.695313c-.753906 0-1.527344.203125-1.601563.554687l-.394531 1.726563h11.59375zm4.847656 6.820313-.589843 2.609375c-.042969.199219-.601563.429687-1.394532.429687h-18.097656c-2.796875 0-4.730469-1.035156-4.46875-2.1875l2.09375-9.277344c.257812-1.140624 2.753906-2.160156 5.566406-2.160156h14.238282c2.792968.007813 4.820312.972656 4.554687 2.160156l-1.226563 5.417969c-.050781.242188-.613281.472657-1.402343.472657h-16.679688l-.339843 1.511718c-.089844.394532.585937.605469 1.320312.605469h15.222656c.824219.011719 1.242188.238281 1.203125.417969m-99.25-15.421875c.722657 0 1.15625.21875 1.117188.402343l-.519531 2.230469c-.066407.304688-.894532.429688-1.347657.425781h-3.5c-.730469 0-1.136719-.230468-1.09375-.425781l.515625-2.230469c.050782-.183593.578125-.402343 1.304688-.402343zm-1.230469 5.140625c.769532 0 1.199219.21875 1.160157.402344l-2.882813 12.484374c-.070312.300782-.898437.429688-1.351562.425782h-3.503906c-.722657-.003906-1.136719-.230469-1.085938-.425782l2.878906-12.484374c.050782-.183594.578125-.402344 1.304688-.402344zm-8.285156 1.90625-.476562 2.058594-1.066406 4.609374-.992188 4.308594c-.023438.105469-.183594.21875-.4375.304688-.230469.078125-.542969.128906-.898438.128906h-3.636718c-.351563 0-.628906-.054688-.820313-.128906-.21875-.085938-.320312-.199219-.296875-.304688l.992188-4.308594 1.066406-4.609374.136719-.589844c.082031-.359375-.5625-.566406-1.257813-.566406h-8.617187l-.265625 1.15625-1.066406 4.609374-.992188 4.308594c-.023438.105469-.1875.21875-.4375.304688-.234375.078125-.539062.128906-.902344.128906h-3.636718c-.347657 0-.625-.054688-.820313-.128906-.2109375-.085938-.3203125-.199219-.29296875-.304688l.99218775-4.308594 1.066406-4.609374.894531-3.882813c.054688-.183594.589844-.410156 1.339844-.410156h16.089844c2.734375 0 4.613281 1.035156 4.335937 2.234375m26.199219.765625c.65625 0 1.269531.214843 1.203125.53125l-.089844.386719-.042968.191406-1.019532 4.40625-.160156.6875c-.074219.320312-.785156.53125-1.453125.53125h-6.878906c-.667969 0-1.28125-.210938-1.207031-.53125l.15625-.6875 1.019531-4.40625.132812-.574219c.070313-.320313.785157-.535156 1.445313-.535156zm3.199219-2.996094h-11.914063c-2.613281 0-4.863281.992187-5.128906 2.136719l-.453125 1.96875-.128906.558594-.023438.035156-1.019531 4.40625-.550781 2.394531c-.207032.90625.863281 1.710937 2.609375 2.011719.46875.082031.984375.125 1.535156.125h10.742187l-.359374 1.546875c-.074219.324219-.789063.515625-1.449219.515625h-12.871094c-.695313 0-1.199219.210937-1.261719.386718l-.101562.421876c-.265625 1.15625 1.527344 2.144531 4.144531 2.144531h11.96875c2.585937 0 4.816406-.976563 5.078125-2.109375l.109375-.457032.59375-2.574218.601563-2.617188s.003906-.003906.003906-.007812l.550781-2.375 1.015625-4.40625.453125-1.96875c.265625-1.144532-1.527344-2.136719-4.144531-2.136719" fill="#272759"/></svg>