<svg height="24" viewBox="0 0 48.641098 24" width="48.641098" xmlns="http://www.w3.org/2000/svg"><g fill="#70d44b"><path d="m20.59375 11.847656h2.296875c.636719 0 1.128906-.164062 1.476563-.5.347656-.332031.523437-.808594.523437-1.425781 0-1.316406-.621094-1.976563-1.859375-1.976563h-2.4375zm-4.367188 7.710938v-14.957032h7.78125c1.222657 0 2.226563.226563 3.007813.675782.78125.449218 1.367187 1.070312 1.753906 1.867187s.578125 1.722657.578125 2.777344c0 1.003906-.25 1.890625-.753906 2.660156-.503906.765625-1.171875 1.347657-2.007812 1.75.167968.140625.316406.308594.441406.5.121094.195313.261718.460938.417968.800781l1.71875 3.925782h-4.554687l-1.578125-3.597656c-.125-.28125-.273438-.476563-.453125-.59375-.175781-.117188-.429687-.175782-.753906-.175782h-1.230469v4.367188zm0 0"/><path d="m35.644531 19.792969c-1.007812 0-1.960937-.082031-2.859375-.246094-.898437-.160156-1.664062-.390625-2.296875-.683594v-3.601562c.695313.328125 1.46875.589843 2.320313.789062.851562.203125 1.648437.304688 2.394531.304688.773437 0 1.355469-.066407 1.75-.199219.398437-.128906.59375-.429688.59375-.894531 0-.324219-.113281-.578125-.335937-.765625-.226563-.183594-.574219-.355469-1.046876-.511719-.472656-.152344-1.085937-.347656-1.84375-.578125-1.007812-.328125-1.804687-.683594-2.394531-1.070312-.585937-.386719-1.007812-.859376-1.265625-1.417969-.253906-.554688-.382812-1.238281-.382812-2.042969 0-1.46875.523437-2.589844 1.566406-3.355469 1.046875-.765625 2.597656-1.148437 4.660156-1.148437.820313 0 1.667969.070312 2.542969.207031.875.140625 1.582031.296875 2.125.464844v3.625c-.730469-.296875-1.425781-.503907-2.089844-.628907-.667969-.121093-1.292969-.183593-1.882812-.183593-.683594 0-1.261719.054687-1.742188.160156-.480469.109375-.71875.386719-.71875.835937 0 .386719.203125.671876.613281.847657.410157.179687 1.144532.40625 2.195313.6875 1.222656.324219 2.15625.71875 2.800781 1.183593.640625.464844 1.078125 1.003907 1.308594 1.613282.234375.613281.351562 1.304687.351562 2.078125 0 1.363281-.527343 2.460937-1.582031 3.289062-1.050781.828125-2.644531 1.242188-4.78125 1.242188"/><path d="m10 2.121094h-2.785156v2.785156l1.386718 1.988281 1.398438-1.988281zm0 0"/><path d="m3.808594 4.589844-.863282 2.648437 2.648438.859375 2.320312-.703125-1.460937-1.945312zm0 0"/><path d="m4.242188 11.242188 2.253906 1.636718 1.632812-2.253906.046875-2.421875-2.296875.789063zm0 0"/><path d="m10.703125 12.886719 2.253906-1.636719-1.636719-2.253906-2.292968-.792969.039062 2.429687zm0 0"/><path d="m14.261719 7.246094-.859375-2.648438-2.648438.863282-1.460937 1.933593 2.320312.714844zm0 0"/></g></svg>