<svg height="24" viewBox="0 0 23.999887 24" width="23.999887" xmlns="http://www.w3.org/2000/svg"><path d="m24 12c0 6.628906-5.371094 12-12 12s-12-5.371094-12-12 5.371094-12 12-12 12 5.371094 12 12" fill="#5fbb46"/><g fill="#fff"><path d="m3.40625 9.113281h2.191406v.953125h.019532c.371093-.710937.855468-1.105468 1.683593-1.105468.230469 0 .449219.035156.667969.09375v2.015624c-.230469-.082031-.4375-.148437-.898438-.148437-.898437 0-1.382812.527344-1.382812 1.808594v2.359375h-2.28125zm0 0"/><path d="m13.226562 11.425781c0-.550781-.417968-1-1.003906-1-.679687 0-1.070312.355469-1.175781 1zm-2.191406 1.1875c.058594.679688.449219 1.164063 1.164063 1.164063.367187 0 .773437-.136719.957031-.425782h2.128906c-.460937 1.289063-1.714844 1.890626-3.074218 1.890626-1.914063 0-3.351563-1.128907-3.351563-3.125 0-1.738282 1.265625-3.15625 3.15625-3.15625 2.371094 0 3.398437 1.324218 3.398437 3.652343zm0 0"/><path d="m16.753906 9.113281h2.1875v.953125h.023438c.371094-.710937.855468-1.105468 1.683594-1.105468.230468 0 .449218.035156.667968.09375v2.015624c-.230468-.082031-.4375-.148437-.898437-.148437-.898438 0-1.382813.527344-1.382813 1.808594v2.359375h-2.28125zm0 0"/></g></svg>