<svg height="24" viewBox="0 0 24 24" width="24" xmlns="http://www.w3.org/2000/svg"><path d="m24 12c0 6.628906-5.371094 12-12 12s-12-5.371094-12-12 5.371094-12 12-12 12 5.371094 12 12zm0 0" fill="#fff"/><g fill="#0097d9"><path d="m15.644531 1.121094-4.144531 5.1875c-.851562 1.070312-.679688 2.628906.386719 3.484375l3.226562 2.601562c1.976563 1.585938 2.292969 4.46875.710938 6.445313l-3.707031 4.640625c6.335937-.070313 11.417968-5.269531 11.347656-11.605469-.058594-4.882812-3.191406-9.195312-7.820313-10.75"/><path d="m12.492188 17.699219c.847656-1.070313.675781-2.625-.386719-3.480469l-3.234375-2.59375c-1.980469-1.582031-2.300782-4.46875-.71875-6.449219l3.722656-4.648437c-6.335938.0625-11.425781 5.25-11.363281 11.585937.046875 4.890625 3.191406 9.214844 7.832031 10.769531zm0 0"/></g></svg>